M48
; DRILL file {KiCad (6.0.11)} date Wed Jan 24 22:10:23 2024
; FORMAT={-:-/ absolute / metric / decimal}
; #@! TF.CreationDate,2024-01-24T22:10:23+00:00
; #@! TF.GenerationSoftware,Kicad,Pcbnew,(6.0.11)
; #@! TF.FileFunction,Plated,1,2,PTH
FMAT,2
METRIC
; #@! TA.AperFunction,Plated,PTH,ViaDrill
T1C0.400
; #@! TA.AperFunction,Plated,PTH,ComponentDrill
T2C0.900
; #@! TA.AperFunction,Plated,PTH,ComponentDrill
T3C1.600
%
G90
G05
T1
X157.25Y-50.97
X159.79Y-57.58
X163.61Y-71.87
X165.94Y-57.6
X168.24Y-71.87
X173.44Y-57.63
X173.47Y-50.86
T2
X153.46Y-56.195
X154.73Y-53.655
X156.0Y-56.195
X157.27Y-53.655
X158.54Y-56.195
X159.81Y-53.655
X161.08Y-56.195
X162.35Y-53.655
X169.64Y-56.195
X170.91Y-53.655
X172.18Y-56.195
X173.45Y-53.655
X174.72Y-56.195
X175.99Y-53.655
X177.26Y-56.195
X178.53Y-53.655
T3
X162.45Y-66.36
X163.48Y-68.83
X165.95Y-69.86
X168.42Y-68.83
X169.45Y-66.36
T0
M30
